<?xml version="1.0" encoding="UTF-8" standalone="no"?><!DOCTYPE svg PUBLIC "-//W3C//DTD SVG 1.1//EN" "http://www.w3.org/Graphics/SVG/1.1/DTD/svg11.dtd"><svg width="2500px" height="2016px" version="1.1" xmlns="http://www.w3.org/2000/svg" xmlns:xlink="http://www.w3.org/1999/xlink" xml:space="preserve" xmlns:serif="http://www.serif.com/" style="fill-rule:evenodd;clip-rule:evenodd;stroke-linejoin:round;stroke-miterlimit:2;"><g><g><path d="M754.732,1621.83L754.732,1827.88C754.732,1887.04 780.97,1916.62 833.446,1916.62C858.655,1916.62 879.363,1907.49 895.569,1889.23C911.775,1870.96 919.878,1848.97 919.878,1823.25L919.878,1621.83L1029.46,1621.83L1029.46,2003.83L929.138,2003.83L925.28,1957.52C896.469,1996.11 856.597,2015.4 805.665,2015.4C781.999,2015.4 761.034,2012.57 742.77,2006.91C724.507,2001.25 707.529,1991.87 691.837,1978.75C676.146,1965.63 664.056,1946.34 655.567,1920.87C647.078,1895.4 642.834,1864.66 642.834,1828.65L642.834,1621.83L754.732,1621.83ZM1974.03,1621.83L2078.21,1621.83L2078.21,2003.06L1977.89,2003.06L1971.72,1955.21C1960.4,1975.27 1943.42,1990.19 1920.79,1999.97C1898.15,2009.74 1876.03,2014.63 1854.42,2014.63C1796.28,2014.63 1748.95,1996.37 1712.42,1959.84C1675.9,1923.31 1657.63,1874.18 1657.63,1812.44C1657.63,1751.74 1676.02,1703.38 1712.81,1667.36C1749.59,1631.35 1796.03,1613.34 1852.1,1613.34C1909.21,1613.34 1948.57,1630.83 1970.17,1665.82L1974.03,1621.83ZM446.048,1910.45L169.004,1910.45L129.647,2003.06L0,2003.06L242.317,1462.86L373.507,1462.86L615.824,2003.06L485.405,2003.06L446.048,1910.45ZM2284.26,1463.63L2284.26,2003.06L2173.91,2003.06L2173.91,1463.63L2284.26,1463.63ZM1585.09,1621.06L1585.09,2003.06L1473.96,2003.06L1473.96,1621.06L1585.09,1621.06ZM2491.08,1621.06L2491.08,2003.06L2379.95,2003.06L2379.95,1621.06L2491.08,1621.06ZM1227.02,1622.6L1235.51,1664.28C1259.17,1630.32 1293.13,1613.34 1337.37,1613.34C1373.38,1613.34 1404.51,1624.92 1430.75,1648.07L1384.45,1736.04C1366.95,1723.18 1346.63,1716.75 1323.48,1716.75C1298.27,1716.75 1277.18,1724.6 1260.2,1740.29C1243.22,1755.98 1234.74,1777.46 1234.74,1804.73L1234.74,2003.06L1123.61,2003.06L1123.61,1622.6L1227.02,1622.6ZM1869.08,1711.35C1840.27,1711.35 1816.35,1720.48 1797.31,1738.75C1778.28,1757.01 1768.76,1781.58 1768.76,1812.44C1768.76,1843.31 1778.28,1867.75 1797.31,1885.76C1816.35,1903.76 1840.27,1912.77 1869.08,1912.77C1898.92,1912.77 1923.23,1902.99 1942.01,1883.44C1960.79,1863.89 1970.17,1841.51 1970.17,1816.3C1970.17,1787.49 1961.17,1762.8 1943.16,1742.22C1925.16,1721.64 1900.46,1711.35 1869.08,1711.35ZM307.912,1584.79L214.535,1803.95L400.517,1803.95L307.912,1584.79Z" style="fill:#fff;fill-rule:nonzero;"/><path d="M1594.01,1519.92C1594.01,1555.75 1565.14,1584.79 1529.53,1584.79C1493.94,1584.79 1465.05,1555.72 1465.05,1519.92C1465.05,1484.1 1493.92,1455.06 1529.53,1455.06L1529.53,1519.92L1594.01,1519.92Z" style="fill:#fff;"/><path d="M2371.04,1519.92C2371.04,1484.1 2399.91,1455.06 2435.52,1455.06C2471.11,1455.06 2500,1484.12 2500,1519.92C2500,1555.75 2471.13,1584.79 2435.52,1584.79L2435.52,1519.92L2371.04,1519.92Z" style="fill:#fff;"/></g><path d="M1576.07,647.284C1756.15,647.284 1902.13,792.183 1902.13,970.925C1902.13,1149.55 1756.03,1294.57 1576.07,1294.57C1395.99,1294.57 1250,1149.67 1250,970.925L1576.07,970.925L1576.07,647.284ZM923.934,647.284C743.852,647.284 597.867,792.183 597.867,970.925C597.867,1149.55 743.973,1294.57 923.934,1294.57C1104.02,1294.57 1250,1149.67 1250,970.925L923.934,970.925L923.934,647.284ZM1250,323.642C1250,144.899 1104.02,0 923.934,0C743.973,0 597.867,145.019 597.867,323.642C597.867,502.384 743.852,647.284 923.934,647.284L923.934,323.642L1250,323.642ZM1250,323.642C1250,144.899 1395.99,0 1576.07,0C1756.03,0 1902.13,145.019 1902.13,323.642C1902.13,502.384 1756.15,647.284 1576.07,647.284L1576.07,323.642L1250,323.642Z" style="fill:#fff;"/></g></svg>