<?xml version="1.0" encoding="UTF-8" standalone="no"?><!DOCTYPE svg PUBLIC "-//W3C//DTD SVG 1.1//EN" "http://www.w3.org/Graphics/SVG/1.1/DTD/svg11.dtd"><svg width="238px" height="196px" version="1.1" xmlns="http://www.w3.org/2000/svg" xmlns:xlink="http://www.w3.org/1999/xlink" xml:space="preserve" xmlns:serif="http://www.serif.com/" style="fill-rule:evenodd;clip-rule:evenodd;stroke-linejoin:round;stroke-miterlimit:2;"><g><path d="M46.231,184.821L17.851,184.821L13.281,195.573L0,195.573L25.573,138.495L38.587,138.495L64.191,195.573L50.831,195.573L46.231,184.821ZM32.081,151.46L22.515,173.912L41.567,173.912L32.081,151.46ZM74.828,154.306L74.828,176.362C74.828,182.423 77.516,185.454 82.891,185.454C85.474,185.454 87.595,184.518 89.255,182.647C90.915,180.776 91.746,178.523 91.746,175.888L91.746,154.306L102.971,154.306L102.971,195.573L91.746,195.573L91.746,189.643C88.794,193.596 85.263,195.573 80.045,195.573C77.621,195.573 75.473,195.283 73.602,194.703C71.731,194.123 69.992,193.161 68.385,191.818C66.777,190.474 65.539,188.497 64.669,185.888C63.8,183.28 63.365,180.131 63.365,176.441L63.365,154.306L74.828,154.306ZM119.458,154.306L119.458,159.524C121.882,156.045 125.44,154.306 129.972,154.306C133.662,154.306 136.85,155.492 139.538,157.863L134.795,166.876C133.003,165.558 130.921,164.899 128.549,164.899C125.967,164.899 123.806,165.703 122.067,167.31C120.328,168.918 119.458,171.118 119.458,173.912L119.458,195.573L108.067,195.573L108.067,154.306L119.458,154.306ZM154.663,154.306L154.663,195.573L143.279,195.573L143.279,154.306L154.663,154.306ZM191.776,155.255L202.844,155.255L202.844,195.573L191.776,195.573L191.776,189.406C190.616,191.462 189.035,192.99 186.716,193.992C184.397,194.993 182.131,195.494 179.918,195.494C173.962,195.494 169.114,193.623 165.372,189.881C161.63,186.139 159.759,181.106 159.759,174.781C159.759,168.562 161.643,163.608 165.411,159.919C169.179,156.23 173.936,154.385 179.681,154.385C185.531,154.385 189.562,156.177 191.776,159.761L191.776,155.255ZM181.42,164.425C178.468,164.425 176.018,165.36 174.068,167.231C172.118,169.102 171.143,171.619 171.143,174.781C171.143,177.943 172.118,180.447 174.068,182.291C176.018,184.136 178.468,185.058 181.42,185.058C184.477,185.058 186.967,184.057 188.89,182.054C190.814,180.051 191.776,177.759 191.776,175.176C191.776,172.225 190.854,169.695 189.009,167.587C187.164,165.479 184.635,164.425 181.42,164.425ZM219.88,138.495L219.88,195.573L207.939,195.573L207.939,138.495L219.88,138.495ZM237.15,154.306L237.15,195.573L225.766,195.573L225.766,154.306L237.15,154.306ZM148.971,151.302C147.179,151.302 145.651,150.748 144.386,149.642C143.121,148.535 142.489,146.954 142.489,144.898C142.489,142.843 143.121,141.262 144.386,140.155C145.651,139.048 147.179,138.495 148.971,138.495C150.763,138.495 152.292,139.048 153.557,140.155C154.821,141.262 155.454,142.843 155.454,144.898L148.971,144.898L148.971,151.302ZM231.458,138.495C233.25,138.495 234.778,139.048 236.043,140.155C237.308,141.262 237.94,142.843 237.94,144.898C237.94,146.954 237.308,148.535 236.043,149.642C234.778,150.748 233.25,151.302 231.458,151.302C229.666,151.302 228.138,150.748 226.873,149.642C225.608,148.535 224.975,146.954 224.975,144.898L231.458,144.898L231.458,138.495Z" style="fill:#fff;"/><path d="M88.123,61.695C71.086,61.695 57.275,47.884 57.275,30.848C57.275,13.822 71.097,0 88.123,0C105.159,0 118.97,13.811 118.97,30.848L88.123,30.848L88.123,61.695ZM118.97,30.848C118.97,13.811 132.781,0 149.818,0C166.843,0 180.665,13.822 180.665,30.848C180.665,47.884 166.855,61.695 149.818,61.695L149.818,30.848L118.97,30.848ZM149.818,61.695C166.855,61.695 180.665,75.506 180.665,92.543C180.665,109.568 166.843,123.391 149.818,123.391C132.781,123.391 118.97,109.58 118.97,92.543L149.818,92.543L149.818,61.695ZM118.97,92.543C118.97,109.58 105.159,123.391 88.123,123.391C71.097,123.391 57.275,109.568 57.275,92.543C57.275,75.506 71.086,61.695 88.123,61.695L88.123,92.543L118.97,92.543ZM142.945,37.72L142.945,85.67L94.995,85.67L94.995,37.72L142.945,37.72ZM104.673,55.495L114.35,55.495C114.577,52.999 116.263,51.751 119.408,51.751C120.737,51.751 121.856,52.026 122.763,52.577C123.671,53.128 124.125,53.971 124.125,55.106C124.125,56.403 123.614,57.343 122.593,57.927C121.572,58.51 120.445,58.802 119.213,58.802C109.098,58.802 104.041,62.968 104.041,71.3L104.041,79.469L133.656,79.469L133.656,71.056L113.524,71.056C113.524,69.273 114.067,68.082 115.153,67.482C116.239,66.882 117.592,66.583 119.213,66.583C129.004,66.583 133.899,62.708 133.899,54.96C133.899,52.561 133.251,50.535 131.954,48.881C130.657,47.228 128.915,45.988 126.727,45.161C124.538,44.335 122.099,43.921 119.408,43.921C116.685,43.921 114.213,44.327 111.992,45.137C109.771,45.948 107.996,47.22 106.667,48.954C105.338,50.689 104.673,52.869 104.673,55.495Z" style="fill:#fff;"/></g></svg>