<?xml version="1.0" encoding="UTF-8" standalone="no"?><!DOCTYPE svg PUBLIC "-//W3C//DTD SVG 1.1//EN" "http://www.w3.org/Graphics/SVG/1.1/DTD/svg11.dtd"><svg width="237px" height="196px" version="1.1" xmlns="http://www.w3.org/2000/svg" xmlns:xlink="http://www.w3.org/1999/xlink" xml:space="preserve" xmlns:serif="http://www.serif.com/" style="fill-rule:evenodd;clip-rule:evenodd;stroke-linejoin:round;stroke-miterlimit:2;"><g><path d="M118.257,30.848L87.409,30.848L87.409,61.695C70.373,61.695 56.562,47.884 56.562,30.848C56.562,13.822 70.384,0 87.409,0C104.446,0 118.257,13.811 118.257,30.848ZM87.409,61.695L87.409,92.543L118.257,92.543C118.257,109.58 104.446,123.391 87.409,123.391C70.384,123.391 56.562,109.568 56.562,92.543C56.562,75.506 70.373,61.695 87.409,61.695ZM149.105,61.695C166.141,61.695 179.952,75.506 179.952,92.543C179.952,109.568 166.13,123.391 149.105,123.391C132.068,123.391 118.257,109.58 118.257,92.543L149.105,92.543L149.105,61.695ZM118.257,30.848C118.257,13.811 132.068,-0 149.105,-0C166.13,-0 179.952,13.822 179.952,30.848C179.952,47.884 166.141,61.695 149.105,61.695L149.105,30.848L118.257,30.848Z" style="fill:#fff;"/><path d="M46.231,184.821L17.851,184.821L13.281,195.573L0,195.573L25.573,138.495L38.587,138.495L64.191,195.573L50.831,195.573L46.231,184.821ZM32.081,151.46L22.515,173.912L41.567,173.912L32.081,151.46ZM74.828,154.306L74.828,176.362C74.828,182.423 77.516,185.454 82.891,185.454C85.474,185.454 87.595,184.518 89.255,182.647C90.915,180.776 91.746,178.523 91.746,175.888L91.746,154.306L102.971,154.306L102.971,195.573L91.746,195.573L91.746,189.643C88.794,193.596 85.263,195.573 80.045,195.573C77.621,195.573 75.473,195.283 73.602,194.703C71.731,194.123 69.992,193.161 68.385,191.818C66.777,190.474 65.539,188.497 64.669,185.888C63.8,183.28 63.365,180.131 63.365,176.441L63.365,154.306L74.828,154.306ZM119.458,154.306L119.458,159.524C121.882,156.045 125.44,154.306 129.972,154.306C133.662,154.306 136.85,155.492 139.538,157.863L134.795,166.876C133.003,165.558 130.921,164.899 128.549,164.899C125.967,164.899 123.806,165.703 122.067,167.31C120.328,168.918 119.458,171.118 119.458,173.912L119.458,195.573L108.067,195.573L108.067,154.306L119.458,154.306ZM154.663,154.306L154.663,195.573L143.279,195.573L143.279,154.306L154.663,154.306ZM191.776,155.255L202.844,155.255L202.844,195.573L191.776,195.573L191.776,189.406C190.616,191.462 189.035,192.99 186.716,193.992C184.397,194.993 182.131,195.494 179.918,195.494C173.962,195.494 169.114,193.623 165.372,189.881C161.63,186.139 159.759,181.106 159.759,174.781C159.759,168.562 161.643,163.608 165.411,159.919C169.179,156.23 173.936,154.385 179.681,154.385C185.531,154.385 189.562,156.177 191.776,159.761L191.776,155.255ZM181.42,164.425C178.468,164.425 176.018,165.36 174.068,167.231C172.118,169.102 171.143,171.619 171.143,174.781C171.143,177.943 172.118,180.447 174.068,182.291C176.018,184.136 178.468,185.058 181.42,185.058C184.477,185.058 186.967,184.057 188.89,182.054C190.814,180.051 191.776,177.759 191.776,175.176C191.776,172.225 190.854,169.695 189.009,167.587C187.164,165.479 184.635,164.425 181.42,164.425ZM219.244,138.495L219.244,195.573L207.939,195.573L207.939,138.495L219.244,138.495ZM235.723,154.306L235.723,195.573L224.339,195.573L224.339,154.306L235.723,154.306ZM155.454,144.898C155.454,146.954 154.821,148.535 153.557,149.642C152.292,150.748 150.763,151.302 148.971,151.302C147.179,151.302 145.651,150.748 144.386,149.642C143.121,148.535 142.489,146.954 142.489,144.898C142.489,142.843 143.121,141.262 144.386,140.155C145.651,139.048 147.179,138.495 148.971,138.495L148.971,144.898L155.454,144.898ZM223.549,144.898C223.549,142.843 224.181,141.262 225.446,140.155C226.711,139.048 228.239,138.495 230.031,138.495C231.823,138.495 233.352,139.048 234.616,140.155C235.881,141.262 236.514,142.843 236.514,144.898C236.514,146.954 235.881,148.535 234.616,149.642C233.352,150.748 231.823,151.302 230.031,151.302L230.031,144.898L223.549,144.898Z" style="fill:#fff;"/></g></svg>