<?xml version="1.0" encoding="UTF-8" standalone="no"?><!DOCTYPE svg PUBLIC "-//W3C//DTD SVG 1.1//EN" "http://www.w3.org/Graphics/SVG/1.1/DTD/svg11.dtd"><svg width="445px" height="161px" version="1.1" xmlns="http://www.w3.org/2000/svg" xmlns:xlink="http://www.w3.org/1999/xlink" xml:space="preserve" xmlns:serif="http://www.serif.com/" style="fill-rule:evenodd;clip-rule:evenodd;stroke-linejoin:round;stroke-miterlimit:2;"><g><g><path d="M0,70.418L0,89.783L56.463,89.783L56.463,70.418L0,70.418Z" style="fill:#fff;"/><rect x="70.418" y="70.418" width="19.365" height="56.463" style="fill:#fff;"/><rect x="70.418" y="0" width="19.365" height="56.463" style="fill:#fff;"/><path d="M56.463,103.738L56.463,160.201L-0,160.201L-0,103.738L56.463,103.738ZM11.361,124.653L22.78,124.653C23.048,121.707 25.037,120.235 28.748,120.235C30.316,120.235 31.636,120.56 32.707,121.21C33.778,121.86 34.314,122.855 34.314,124.194C34.314,125.724 33.712,126.834 32.506,127.522C31.301,128.211 29.972,128.555 28.518,128.555C16.583,128.555 10.615,133.471 10.615,143.302L10.615,152.942L45.561,152.942L45.561,143.015L21.805,143.015C21.805,140.911 22.446,139.505 23.727,138.798C25.009,138.09 26.606,137.736 28.518,137.736C40.071,137.736 45.848,133.165 45.848,124.022C45.848,121.191 45.083,118.8 43.553,116.849C42.022,114.898 39.966,113.435 37.384,112.459C34.802,111.484 31.923,110.996 28.748,110.996C25.535,110.996 22.618,111.474 19.997,112.431C17.377,113.387 15.282,114.889 13.714,116.935C12.145,118.982 11.361,121.554 11.361,124.653Z" style="fill:#fff;"/><path d="M103.841,160.201L103.841,140.836L70.418,140.836L70.418,160.201L103.841,160.201Z" style="fill:#fff;"/></g><path d="M222.311,123.13L222.311,103.738L266.787,103.738L266.787,123.13L222.311,123.13Z" style="fill:#fff;"/><g><path d="M153.561,70.418L153.561,89.783L210.024,89.783L210.024,70.418L153.561,70.418Z" style="fill:#fff;"/><rect x="190.659" y="103.738" width="19.365" height="56.463" style="fill:#fff;"/><rect x="120.241" y="70.418" width="19.365" height="56.463" style="fill:#fff;"/><path d="M224.082,160.201L224.082,140.836L190.659,140.836L190.659,160.201L224.082,160.201Z" style="fill:#fff;"/><path d="M120.241,140.836L120.241,160.201L176.704,160.201L176.704,140.836L120.241,140.836Z" style="fill:#fff;"/></g><g><path d="M374.454,70.418L374.454,89.783L430.917,89.783L430.917,70.418L374.454,70.418Z" style="fill:#fff;"/><rect x="411.552" y="103.738" width="19.365" height="56.463" style="fill:#fff;"/><rect x="341.134" y="70.418" width="19.365" height="56.463" style="fill:#fff;"/><path d="M444.975,160.201L444.975,140.836L411.552,140.836L411.552,160.201L444.975,160.201Z" style="fill:#fff;"/><path d="M341.134,140.836L341.134,160.201L397.597,160.201L397.597,140.836L341.134,140.836Z" style="fill:#fff;"/></g><g><path d="M252.779,70.418L252.779,89.783L324.734,89.783L324.734,70.418L252.779,70.418Z" style="fill:#fff;"/><rect x="279.074" y="103.738" width="19.365" height="56.463" style="fill:#fff;"/><rect x="279.074" y="48.52" width="19.365" height="41.263" style="fill:#fff;"/><path d="M324.734,160.201L324.734,140.836L279.074,140.836L279.074,160.201L324.734,160.201Z" style="fill:#fff;"/></g></g></svg>