<?xml version="1.0" encoding="UTF-8" standalone="no"?><!DOCTYPE svg PUBLIC "-//W3C//DTD SVG 1.1//EN" "http://www.w3.org/Graphics/SVG/1.1/DTD/svg11.dtd"><svg width="2500px" height="898px" version="1.1" xmlns="http://www.w3.org/2000/svg" xmlns:xlink="http://www.w3.org/1999/xlink" xml:space="preserve" xmlns:serif="http://www.serif.com/" style="fill-rule:evenodd;clip-rule:evenodd;stroke-linejoin:round;stroke-miterlimit:2;"><g><g><path d="M1824.36,505.736L1824.36,397.112L1421.31,397.112L1421.31,505.736L1824.36,505.736Z" style="fill:#fff;"/><path d="M1671.5,493.227L1671.5,274.451L1562.88,274.451L1562.88,493.227L1671.5,493.227Z" style="fill:#fff;"/><rect x="1562.88" y="577.563" width="108.625" height="319.788" style="fill:#fff;"/><path d="M1591.02,788.725L1591.02,897.35L1824.36,897.35L1824.36,788.725L1591.02,788.725Z" style="fill:#fff;"/></g><path d="M1244.93,686.188L1244.93,577.563L1494.05,577.563L1494.05,686.188L1244.93,686.188Z" style="fill:#fff;"/><g><path d="M-0,393.73L-0,502.355L316.718,502.355L316.718,393.73L-0,393.73Z" style="fill:#fff;"/><rect x="396.294" y="393.73" width="108.625" height="314.874" style="fill:#fff;"/><rect x="396.294" y="-0" width="108.625" height="314.874" style="fill:#fff;"/><rect x="-0" y="580.632" width="108.625" height="316.718" style="fill:#fff;"/><path d="M583.775,897.35L583.775,788.725L396.294,788.725L396.294,897.35L583.775,897.35Z" style="fill:#fff;"/><path d="M28.141,788.725L28.141,897.35L316.718,897.35L316.718,788.725L28.141,788.725Z" style="fill:#fff;"/></g><g><path d="M675.639,788.725L675.639,897.35L992.357,897.35L992.357,788.725L675.639,788.725Z" style="fill:#fff;"/><rect x="675.639" y="393.73" width="108.625" height="314.874" style="fill:#fff;"/><rect x="1067.48" y="577.563" width="108.625" height="319.788" style="fill:#fff;"/><path d="M1259.41,897.35L1259.41,788.725L1071.93,788.725L1071.93,897.35L1259.41,897.35Z" style="fill:#fff;"/><path d="M1176.1,500.511L1176.1,391.886L864.384,391.886L864.384,500.511L1176.1,500.511Z" style="fill:#fff;"/></g><g><path d="M1916.23,788.725L1916.23,897.35L2232.94,897.35L2232.94,788.725L1916.23,788.725Z" style="fill:#fff;"/><rect x="1916.23" y="393.73" width="108.625" height="314.874" style="fill:#fff;"/><rect x="2308.06" y="580.632" width="108.625" height="316.718" style="fill:#fff;"/><path d="M2500,897.35L2500,788.725L2312.52,788.725L2312.52,897.35L2500,897.35Z" style="fill:#fff;"/><path d="M2416.69,500.511L2416.69,391.886L2104.97,391.886L2104.97,500.511L2416.69,500.511Z" style="fill:#fff;"/></g></g></svg>