<?xml version="1.0" encoding="UTF-8" standalone="no"?><!DOCTYPE svg PUBLIC "-//W3C//DTD SVG 1.1//EN" "http://www.w3.org/Graphics/SVG/1.1/DTD/svg11.dtd"><svg width="445px" height="161px" version="1.1" xmlns="http://www.w3.org/2000/svg" xmlns:xlink="http://www.w3.org/1999/xlink" xml:space="preserve" xmlns:serif="http://www.serif.com/" style="fill-rule:evenodd;clip-rule:evenodd;stroke-linejoin:round;stroke-miterlimit:2;"><g><path d="M222.311,123.13L222.311,103.738L266.787,103.738L266.787,123.13L222.311,123.13Z" style="fill:#fff;"/><g><path d="M0,70.418L0,89.783L56.463,89.783L56.463,70.418L0,70.418Z" style="fill:#fff;"/><rect x="70.418" y="70.418" width="19.365" height="56.463" style="fill:#fff;"/><rect x="70.418" y="0" width="19.365" height="56.463" style="fill:#fff;"/><rect x="0" y="103.738" width="19.365" height="56.463" style="fill:#fff;"/><path d="M103.841,160.201L103.841,140.836L70.418,140.836L70.418,160.201L103.841,160.201Z" style="fill:#fff;"/><path d="M5.017,140.836L5.017,160.201L56.463,160.201L56.463,140.836L5.017,140.836Z" style="fill:#fff;"/></g><g><path d="M153.561,70.418L153.561,89.783L210.024,89.783L210.024,70.418L153.561,70.418Z" style="fill:#fff;"/><rect x="190.659" y="103.738" width="19.365" height="56.463" style="fill:#fff;"/><rect x="120.241" y="70.418" width="19.365" height="56.463" style="fill:#fff;"/><path d="M224.082,160.201L224.082,140.836L190.659,140.836L190.659,160.201L224.082,160.201Z" style="fill:#fff;"/><path d="M120.241,140.836L120.241,160.201L176.704,160.201L176.704,140.836L120.241,140.836Z" style="fill:#fff;"/></g><g><path d="M374.454,70.418L374.454,89.783L430.917,89.783L430.917,70.418L374.454,70.418Z" style="fill:#fff;"/><rect x="411.552" y="103.738" width="19.365" height="56.463" style="fill:#fff;"/><rect x="341.134" y="70.418" width="19.365" height="56.463" style="fill:#fff;"/><path d="M444.975,160.201L444.975,140.836L411.552,140.836L411.552,160.201L444.975,160.201Z" style="fill:#fff;"/><path d="M341.134,140.836L341.134,160.201L397.597,160.201L397.597,140.836L341.134,140.836Z" style="fill:#fff;"/></g><g><path d="M252.779,70.418L252.779,89.783L324.734,89.783L324.734,70.418L252.779,70.418Z" style="fill:#fff;"/><rect x="279.074" y="103.738" width="19.365" height="56.463" style="fill:#fff;"/><rect x="279.074" y="48.52" width="19.365" height="41.263" style="fill:#fff;"/><path d="M324.734,160.201L324.734,140.836L279.074,140.836L279.074,160.201L324.734,160.201Z" style="fill:#fff;"/></g></g></svg>