<?xml version="1.0" encoding="UTF-8" standalone="no"?><!DOCTYPE svg PUBLIC "-//W3C//DTD SVG 1.1//EN" "http://www.w3.org/Graphics/SVG/1.1/DTD/svg11.dtd"><svg width="2500px" height="898px" version="1.1" xmlns="http://www.w3.org/2000/svg" xmlns:xlink="http://www.w3.org/1999/xlink" xml:space="preserve" xmlns:serif="http://www.serif.com/" style="fill-rule:evenodd;clip-rule:evenodd;stroke-linejoin:round;stroke-miterlimit:2;"><g><g><path d="M1824.36,505.736L1824.36,397.112L1421.31,397.112L1421.31,505.736L1824.36,505.736Z" style="fill:#fff;"/><path d="M1671.5,493.227L1671.5,274.451L1562.88,274.451L1562.88,493.227L1671.5,493.227Z" style="fill:#fff;"/><rect x="1562.88" y="577.563" width="108.625" height="319.788" style="fill:#fff;"/><path d="M1591.02,788.725L1591.02,897.35L1824.36,897.35L1824.36,788.725L1591.02,788.725Z" style="fill:#fff;"/></g><path d="M1244.93,686.188L1244.93,577.563L1494.05,577.563L1494.05,686.188L1244.93,686.188Z" style="fill:#fff;"/><g><path d="M675.639,788.725L675.639,897.35L992.357,897.35L992.357,788.725L675.639,788.725Z" style="fill:#fff;"/><rect x="675.639" y="393.73" width="108.625" height="314.874" style="fill:#fff;"/><rect x="1067.48" y="577.563" width="108.625" height="319.788" style="fill:#fff;"/><path d="M1259.41,897.35L1259.41,788.725L1071.93,788.725L1071.93,897.35L1259.41,897.35Z" style="fill:#fff;"/><path d="M1176.1,500.511L1176.1,391.886L864.384,391.886L864.384,500.511L1176.1,500.511Z" style="fill:#fff;"/></g><g><path d="M1916.23,788.725L1916.23,897.35L2232.94,897.35L2232.94,788.725L1916.23,788.725Z" style="fill:#fff;"/><rect x="1916.23" y="393.73" width="108.625" height="314.874" style="fill:#fff;"/><rect x="2308.06" y="580.632" width="108.625" height="316.718" style="fill:#fff;"/><path d="M2500,897.35L2500,788.725L2312.52,788.725L2312.52,897.35L2500,897.35Z" style="fill:#fff;"/><path d="M2416.69,500.511L2416.69,391.886L2104.97,391.886L2104.97,500.511L2416.69,500.511Z" style="fill:#fff;"/></g><g><path d="M0,393.73L0,502.355L316.718,502.355L316.718,393.73L0,393.73Z" style="fill:#fff;"/><rect x="396.294" y="393.73" width="108.625" height="314.874" style="fill:#fff;"/><rect x="396.294" y="0" width="108.625" height="314.874" style="fill:#fff;"/><path d="M583.775,897.35L583.775,788.725L396.294,788.725L396.294,897.35L583.775,897.35Z" style="fill:#fff;"/><path d="M0,580.632L316.718,582.476L316.718,897.35L0,897.35L0,580.632ZM63.924,698.037L127.845,698.037C129.344,681.548 140.479,673.304 161.25,673.304C170.03,673.304 177.418,675.124 183.413,678.765C189.409,682.405 192.407,687.972 192.407,695.467C192.407,704.033 189.035,710.243 182.289,714.097C175.544,717.952 168.103,719.879 159.965,719.879C93.154,719.879 59.749,747.396 59.749,802.429L59.749,856.392L255.364,856.392L255.364,800.823L122.384,800.823C122.384,789.046 125.971,781.176 133.144,777.215C140.318,773.253 149.258,771.272 159.965,771.272C224.635,771.272 256.97,745.683 256.97,694.504C256.97,678.657 252.687,665.274 244.122,654.353C235.556,643.432 224.046,635.241 209.592,629.78C195.137,624.32 179.024,621.59 161.25,621.59C143.262,621.59 126.934,624.266 112.266,629.62C97.598,634.973 85.873,643.378 77.094,654.835C68.314,666.291 63.924,680.692 63.924,698.037Z" style="fill:#fff;"/></g></g></svg>