<?xml version="1.0" encoding="UTF-8" standalone="no"?><!DOCTYPE svg PUBLIC "-//W3C//DTD SVG 1.1//EN" "http://www.w3.org/Graphics/SVG/1.1/DTD/svg11.dtd"><svg width="1958px" height="1958px" version="1.1" xmlns="http://www.w3.org/2000/svg" xmlns:xlink="http://www.w3.org/1999/xlink" xml:space="preserve" xmlns:serif="http://www.serif.com/" style="fill-rule:evenodd;clip-rule:evenodd;stroke-linejoin:round;stroke-miterlimit:2;"><path d="M978.94,0C1519.23,0 1957.88,438.648 1957.88,978.94C1957.88,1519.23 1519.23,1957.88 978.94,1957.88C438.648,1957.88 0,1519.23 0,978.94C0,438.648 438.648,0 978.94,0ZM1408.54,588.475C1327.22,551.246 1241.37,524.834 1153.19,509.915C1141.12,531.486 1130.21,553.68 1120.48,576.404C1026.55,562.25 931.03,562.25 837.101,576.404C827.372,553.682 816.454,531.489 804.392,509.915C716.154,524.96 630.251,551.435 548.852,588.67C387.254,827.758 343.447,1060.91 365.35,1290.75C459.985,1360.67 565.913,1413.85 678.52,1447.96C703.876,1413.86 726.313,1377.68 745.593,1339.81C708.974,1326.13 673.63,1309.26 639.97,1289.38C648.829,1282.96 657.493,1276.34 665.865,1269.91C864.043,1363.11 1093.83,1363.11 1292.01,1269.91C1300.48,1276.83 1309.14,1283.45 1317.9,1289.38C1284.18,1309.29 1248.77,1326.2 1212.09,1339.91C1231.34,1377.76 1253.78,1413.91 1279.16,1447.96C1391.86,1413.98 1497.87,1360.83 1592.53,1290.84C1618.23,1024.3 1548.62,793.296 1408.54,588.475ZM1184.54,1149.4C1123.4,1149.4 1073.17,1094.01 1073.17,1025.86C1073.17,957.718 1121.85,901.84 1184.54,901.84C1247.23,901.84 1296.88,957.718 1295.81,1025.86C1294.74,1094.01 1246.74,1149.4 1184.54,1149.4ZM773.338,1149.4C712.3,1149.4 661.874,1094.01 661.874,1025.86C661.874,957.718 710.548,901.84 773.143,901.84C835.738,901.84 885.775,957.718 884.704,1025.86C883.633,1094.01 835.543,1149.4 773.338,1149.4Z" style="fill:#fff;"/></svg>