<?xml version="1.0" encoding="UTF-8" standalone="no"?><!DOCTYPE svg PUBLIC "-//W3C//DTD SVG 1.1//EN" "http://www.w3.org/Graphics/SVG/1.1/DTD/svg11.dtd"><svg width="1958px" height="1958px" version="1.1" xmlns="http://www.w3.org/2000/svg" xmlns:xlink="http://www.w3.org/1999/xlink" xml:space="preserve" xmlns:serif="http://www.serif.com/" style="fill-rule:evenodd;clip-rule:evenodd;stroke-linejoin:round;stroke-miterlimit:2;"><path d="M978.94,0C1519.23,0 1957.88,438.648 1957.88,978.94C1957.88,1519.23 1519.23,1957.88 978.94,1957.88C438.648,1957.88 0,1519.23 0,978.94C0,438.648 438.648,0 978.94,0ZM661.752,1173.24C597.421,1214.26 554.393,1286.27 554.393,1367.54C554.393,1493.85 658.331,1597.79 784.641,1597.79C910.952,1597.79 1014.89,1493.85 1014.89,1367.54L1014.89,1145.47C1056.29,1184.87 1112.14,1209.19 1173.24,1209.19C1299.55,1209.19 1403.49,1105.25 1403.49,978.94C1403.49,897.67 1360.46,825.661 1296.13,784.641C1360.46,743.621 1403.49,671.613 1403.49,590.343C1403.49,464.032 1299.55,360.094 1173.24,360.094L784.641,360.094C658.331,360.094 554.393,464.032 554.393,590.343C554.393,671.613 597.421,743.621 661.752,784.641C597.421,825.661 554.393,897.67 554.393,978.94C554.393,1060.21 597.421,1132.22 661.752,1173.24ZM1173.24,748.691L1014.89,748.691L1014.89,431.994L1173.24,431.994C1260.11,431.994 1331.59,503.475 1331.59,590.343C1331.59,677.21 1260.11,748.691 1173.24,748.691ZM1014.89,978.94C1014.89,892.072 1086.37,820.591 1173.24,820.591C1260.11,820.591 1331.59,892.072 1331.59,978.94C1331.59,1065.81 1260.11,1137.29 1173.24,1137.29C1086.37,1137.29 1014.89,1065.81 1014.89,978.94ZM942.99,978.94L942.99,1137.29L784.641,1137.29C697.773,1137.29 626.292,1065.81 626.292,978.94C626.292,892.072 697.773,820.591 784.641,820.591L942.99,820.591L942.99,978.94ZM784.641,748.691C697.773,748.691 626.292,677.21 626.292,590.343C626.292,503.475 697.773,431.994 784.641,431.994L942.99,431.994L942.99,748.691L784.641,748.691ZM784.641,1209.19L942.99,1209.19C942.99,1209.19 942.99,1367.54 942.99,1367.54C942.99,1454.4 871.509,1525.89 784.641,1525.89C697.773,1525.89 626.292,1454.4 626.292,1367.54C626.292,1280.67 697.773,1209.19 784.641,1209.19Z" style="fill:#fff;"/></svg>