<?xml version="1.0" encoding="UTF-8" standalone="no"?><!DOCTYPE svg PUBLIC "-//W3C//DTD SVG 1.1//EN" "http://www.w3.org/Graphics/SVG/1.1/DTD/svg11.dtd"><svg width="1021px" height="381px" version="1.1" xmlns="http://www.w3.org/2000/svg" xmlns:xlink="http://www.w3.org/1999/xlink" xml:space="preserve" xmlns:serif="http://www.serif.com/" style="fill-rule:evenodd;clip-rule:evenodd;stroke-linejoin:round;stroke-miterlimit:2;"><g><g><g><path d="M276.799,180.427L276.799,232.799C283.78,223.708 293.659,219.162 306.435,219.162C332.383,219.162 345.357,234.775 345.357,266.001L345.357,318.768L316.907,318.768L316.907,266.199C316.907,259.479 315.227,254.275 311.869,250.586C308.51,246.897 303.999,245.052 298.335,245.052C292.144,245.052 286.974,247.127 282.825,251.278C278.676,255.428 276.602,261.324 276.602,268.965L276.602,318.768L248.151,318.768L248.151,180.427L276.799,180.427Z" style="fill:#fff;fill-rule:nonzero;"/><path d="M439.355,218.174L467.015,218.174L467.015,318.768L439.75,318.768L439.75,303.551C436.853,308.689 432.506,312.51 426.711,315.013C420.915,317.517 415.251,318.768 409.719,318.768C394.835,318.768 382.718,314.091 373.366,304.737C364.014,295.382 359.338,282.8 359.338,266.989C359.338,251.442 364.047,239.057 373.465,229.835C382.882,220.612 394.77,216 409.127,216C423.747,216 433.823,220.48 439.355,229.439L439.355,218.174ZM413.473,241.1C406.097,241.1 399.972,243.438 395.099,248.115C390.225,252.793 387.789,259.084 387.789,266.989C387.789,274.894 390.225,281.153 395.099,285.764C399.972,290.375 406.097,292.681 413.473,292.681C421.113,292.681 427.336,290.178 432.144,285.171C436.951,280.165 439.355,274.433 439.355,267.977C439.355,260.599 437.05,254.275 432.44,249.005C427.83,243.735 421.508,241.1 413.473,241.1Z" style="fill:#fff;fill-rule:nonzero;"/><path d="M552.984,318.768L552.984,264.222C552.984,249.071 546.267,241.495 532.832,241.495C526.378,241.495 521.076,243.833 516.927,248.511C512.778,253.188 510.704,258.82 510.704,265.408L510.704,318.768L482.648,318.768L482.648,218.174L510.704,218.174L510.704,230.625C518.211,220.875 527.036,216 539.944,216C552.721,216 562.863,219.558 570.371,226.672C577.878,233.787 581.632,246.238 581.632,264.025L581.632,318.768L552.984,318.768Z" style="fill:#fff;fill-rule:nonzero;"/><path d="M621.975,334.262C622.924,347.819 631.33,354.598 647.192,354.598C654.106,354.598 659.97,353.005 664.783,349.819C669.596,346.633 672.002,342.057 672.002,336.092C672.002,324.568 663.868,318.806 647.599,318.806C631.058,318.806 617.874,314.23 608.045,305.079C598.215,295.928 593.301,283.624 593.301,268.169C593.301,252.035 598.588,239.461 609.163,230.445C619.738,221.429 632.55,216.921 647.599,216.921C658.173,216.921 666.037,218.752 671.189,222.412L682.17,208.177L703.32,224.446L690.508,239.698C697.422,248.104 700.88,257.052 700.88,266.542C700.88,283.895 693.694,296.301 679.323,303.757C694.236,310.265 701.693,321.043 701.693,336.092C701.693,350.192 696.338,361.105 685.627,368.833C674.917,376.561 662.105,380.425 647.192,380.425C629.838,380.425 616.687,376.392 607.739,368.325C598.792,360.258 594.453,348.904 594.724,334.262L621.975,334.262ZM647.599,242.952C639.871,242.952 633.6,245.189 628.788,249.663C623.975,254.137 621.568,260.305 621.568,268.169C621.568,275.354 624.009,281.15 628.889,285.556C633.77,289.962 640.006,292.165 647.599,292.165C654.648,292.165 660.614,290.064 665.495,285.861C670.375,281.658 672.816,275.761 672.816,268.169C672.816,261.119 670.409,255.153 665.596,250.273C660.783,245.392 654.784,242.952 647.599,242.952Z" style="fill:#fff;"/><path d="M804.17,304.638C794.555,314.058 781.515,318.768 765.051,318.768C748.587,318.768 735.58,314.058 726.03,304.638C716.481,295.217 711.706,282.668 711.706,266.989C711.706,252.101 716.613,239.848 726.425,230.23C736.238,220.612 749.113,215.803 765.051,215.803C781.12,215.803 794.061,220.612 803.874,230.23C813.687,239.848 818.593,252.101 818.593,266.989C818.593,282.668 813.786,295.217 804.17,304.638ZM746.677,285.764C750.76,290.903 756.885,293.472 765.051,293.472C773.217,293.472 779.375,290.935 783.524,285.863C787.673,280.79 789.748,274.499 789.748,266.989C789.748,260.138 787.64,254.143 783.425,249.005C779.21,243.866 773.086,241.297 765.051,241.297C757.148,241.297 751.089,243.866 746.874,249.005C742.659,254.143 740.552,260.138 740.552,266.989C740.552,274.367 742.593,280.626 746.677,285.764Z" style="fill:#fff;fill-rule:nonzero;"/><path d="M861.222,218.174L861.222,270.744C861.222,285.896 867.94,293.472 881.375,293.472C887.829,293.472 893.13,291.133 897.279,286.456C901.428,281.779 903.503,276.146 903.503,269.558L903.503,218.174L931.558,218.174L931.558,318.768L903.503,318.768L903.503,303.946C896.127,313.828 887.302,318.768 874.262,318.768C868.203,318.768 862.836,318.044 858.16,316.595C853.484,315.145 849.137,312.741 845.12,309.381C841.103,306.021 838.007,301.081 835.834,294.559C833.661,288.037 832.574,280.165 832.574,270.942L832.574,218.174L861.222,218.174Z" style="fill:#fff;fill-rule:nonzero;"/><path d="M991.376,194.592L991.376,218.174L1016.07,218.174L1016.07,241.89L991.178,241.89L991.178,279.969C991.178,288.665 994.866,293.013 1002.24,293.013C1006.98,293.013 1010.94,292.222 1014.1,290.641L1020.62,314.357C1015.22,316.597 1008.37,318.046 1000.07,318.705C988.61,319.232 979.555,316.498 972.903,310.503C966.251,304.508 962.926,294.33 962.926,279.969L962.926,241.89L945.539,241.89L945.539,218.174L962.926,218.174L962.926,194.592L991.376,194.592Z" style="fill:#fff;fill-rule:nonzero;"/></g><g><path d="M322.636,70.935L322.636,95.046L347.333,95.046L347.333,118.762L322.439,118.762L322.439,156.312C322.439,165.008 326.127,169.355 333.503,169.355C338.245,169.355 342.196,168.565 345.357,166.984L351.877,190.7C346.477,192.939 339.628,194.389 331.33,195.047C319.87,195.574 310.815,192.841 304.163,186.846C297.512,180.851 294.186,170.673 294.186,156.312L294.186,118.762L276.799,118.762L276.799,95.046L294.186,95.046L294.186,70.935L322.636,70.935Z" style="fill:#3af;fill-rule:nonzero;"/><path d="M439.355,94.517L467.015,94.517L467.015,195.111L439.75,195.111L439.75,179.894C436.853,185.032 432.506,188.853 426.711,191.356C420.915,193.86 415.251,195.111 409.719,195.111C394.835,195.111 382.718,190.434 373.366,181.08C364.014,171.725 359.338,159.142 359.338,143.332C359.338,127.785 364.047,115.4 373.465,106.177C382.882,96.955 394.77,92.343 409.127,92.343C423.747,92.343 433.823,96.823 439.355,105.782L439.355,94.517ZM413.473,117.442C406.097,117.442 399.972,119.781 395.099,124.458C390.225,129.136 387.789,135.427 387.789,143.332C387.789,151.237 390.225,157.496 395.099,162.107C399.972,166.718 406.097,169.024 413.473,169.024C421.113,169.024 427.336,166.521 432.144,161.514C436.951,156.507 439.355,150.776 439.355,144.32C439.355,136.942 437.05,130.618 432.44,125.348C427.83,120.077 421.508,117.442 413.473,117.442Z" style="fill:#3af;fill-rule:nonzero;"/><rect x="482.648" y="70.935" width="25.684" height="41.923" style="fill:#3af;fill-rule:nonzero;"/><path d="M586.111,121.79C579.262,117.179 571.556,114.873 562.995,114.873C558.517,114.873 555.059,115.598 552.622,117.047C550.186,118.496 548.967,120.407 548.967,122.778C548.967,128.312 553.775,131.145 563.39,131.277C569.054,131.408 574.026,131.902 578.307,132.759C582.588,133.615 587,135.064 591.544,137.107C596.088,139.149 599.612,142.344 602.114,146.692C604.617,151.04 605.868,156.376 605.868,162.7C605.868,171.396 602.345,178.971 595.298,185.427C588.251,191.883 577.549,195.111 563.192,195.111C545.938,195.111 530.659,189.578 517.356,178.51L529.605,158.747C539.615,166.652 551.206,170.605 564.378,170.605C568.461,170.605 571.82,169.848 574.454,168.332C577.088,166.817 578.34,164.94 578.208,162.7C578.208,157.43 572.676,154.531 561.612,154.004C556.738,153.872 552.03,153.214 547.485,152.028C542.941,150.842 538.595,149.096 534.446,146.791C530.297,144.485 526.971,141.257 524.468,137.107C521.966,132.956 520.714,128.18 520.714,122.778C520.714,112.633 524.798,104.893 532.964,99.557C541.13,94.221 551.075,91.553 562.797,91.553C577.945,91.553 590.392,95.769 600.139,104.201L586.111,121.79Z" style="fill:#3af;fill-rule:nonzero;"/></g></g><g><path d="M0,140.05L0,178.564L112.296,178.564L112.296,140.05L0,140.05Z" style="fill:#fff;"/><rect x="140.05" y="140.05" width="38.514" height="112.296" style="fill:#fff;"/><rect x="140.05" y="0" width="38.514" height="112.296" style="fill:#fff;"/><rect x="73.782" y="206.318" width="38.514" height="112.296" style="fill:#3af;"/><rect x="0" y="272.586" width="46.028" height="46.028" style="fill:#fff;"/><path d="M206.524,318.614L206.524,280.1L140.05,280.1L140.05,318.614L206.524,318.614Z" style="fill:#fff;"/><path d="M102.319,244.832L102.319,206.318L0,206.318L0,244.832L102.319,244.832Z" style="fill:#3af;"/></g></g></svg>