<?xml version="1.0" encoding="UTF-8" standalone="no"?><!DOCTYPE svg PUBLIC "-//W3C//DTD SVG 1.1//EN" "http://www.w3.org/Graphics/SVG/1.1/DTD/svg11.dtd"><svg width="5196px" height="1958px" version="1.1" xmlns="http://www.w3.org/2000/svg" xmlns:xlink="http://www.w3.org/1999/xlink" xml:space="preserve" xmlns:serif="http://www.serif.com/" style="fill-rule:evenodd;clip-rule:evenodd;stroke-linejoin:round;stroke-miterlimit:2;"><path d="M5195.96,978.94C5195.96,1238.57 5092.82,1487.57 4909.24,1671.15C4725.65,1854.74 4476.65,1957.88 4217.02,1957.88L978.939,1957.88C719.308,1957.88 470.311,1854.74 286.725,1671.15C103.138,1487.57 -0,1238.57 -0,978.94C0,438.287 438.286,-0 978.939,0L4217.02,-0C4476.65,-0 4725.65,103.138 4909.24,286.725C5092.82,470.311 5195.96,719.309 5195.96,978.94ZM4476.85,1548.84C4581.73,1541.84 4665.65,1450.94 4658.65,1346.05C4651.66,1276.12 4609.7,1213.19 4553.77,1185.22L4553.77,758.673C4616.7,730.702 4658.65,660.776 4658.65,583.858C4651.66,478.969 4567.75,395.057 4462.86,395.057L4239.1,395.057C4176.16,395.057 4127.22,423.028 4092.25,464.983L3910.45,464.983C3840.52,464.983 3777.59,506.939 3742.62,555.887C3700.67,562.88 3658.71,583.858 3630.74,618.821C3609.76,611.828 3595.78,611.828 3574.8,611.828L3560.82,611.828C3553.82,569.872 3532.84,534.909 3504.87,506.939C3469.91,471.976 3413.97,450.998 3365.02,450.998L3351.04,450.998C3351.04,457.991 3232.16,464.983 3099.3,464.983L2826.59,471.976C2784.64,471.976 2749.67,485.961 2714.71,506.939L2707.72,485.961C2700.72,464.983 2679.75,437.013 2665.76,423.028C2630.8,381.072 2581.85,360.094 2525.91,360.094L2497.94,360.094L2316.13,388.065C2232.22,402.05 2176.28,457.991 2155.3,534.909C2085.38,499.946 1994.47,485.961 1882.59,485.961C1784.69,485.961 1700.78,492.954 1658.83,499.946C1609.88,506.939 1560.93,534.909 1532.96,576.865C1525.97,590.85 1518.97,597.843 1511.98,611.828C1470.03,618.821 1428.07,639.798 1400.1,674.761C1379.12,667.769 1365.14,667.769 1344.16,667.769C1302.2,667.769 1260.25,674.761 1225.29,688.747L1225.29,611.828C1225.29,506.939 1141.37,416.035 1036.49,416.035C987.536,416.035 945.581,437.013 910.618,464.983L861.669,464.983C756.78,464.983 665.877,513.932 616.928,604.835C588.958,667.769 581.965,730.702 574.973,772.658L574.973,786.643C560.987,856.569 567.98,919.503 595.951,975.443C567.98,1010.41 547.002,1052.36 547.002,1101.31C547.002,1101.31 540.01,1178.23 540.01,1227.18C533.017,1297.1 540.01,1360.04 540.01,1395L540.01,1401.99C547.002,1506.88 630.914,1583.8 728.81,1583.8L742.795,1583.8C791.743,1583.8 840.692,1555.83 875.655,1520.87C875.655,1513.87 882.647,1513.87 882.647,1506.88L924.603,1506.88C987.536,1506.88 1057.46,1485.9 1113.4,1450.94C1169.34,1527.86 1267.24,1583.8 1393.11,1583.8L1428.07,1583.8C1463.03,1583.8 1511.98,1583.8 1567.92,1555.83C1595.89,1541.84 1630.86,1527.86 1658.83,1499.89C1679.8,1506.88 1693.79,1506.88 1714.77,1506.88L1742.74,1506.88L1945.52,1478.91C1959.51,1471.92 1973.49,1471.92 1987.48,1464.93C2008.46,1485.9 2036.43,1506.88 2071.39,1520.87C2106.35,1534.85 2148.31,1541.84 2183.27,1541.84C2218.24,1541.84 2260.19,1527.86 2295.15,1513.87C2372.07,1478.91 2421.02,1422.97 2448.99,1339.06L2469.97,1339.06C2497.94,1339.06 2525.91,1339.06 2546.89,1325.07C2553.88,1325.07 2560.87,1332.07 2567.87,1339.06C2602.83,1360.04 2644.78,1374.02 2686.74,1374.02C2728.7,1374.02 2763.66,1360.04 2798.62,1339.06C2812.61,1422.97 2896.52,1492.9 2987.42,1492.9L3246.15,1485.9C3295.1,1485.9 3344.04,1464.93 3379.01,1429.96C3434.95,1492.9 3518.86,1527.86 3623.75,1527.86L3658.71,1527.86C3693.67,1527.86 3742.62,1527.86 3798.56,1499.89C3805.56,1492.9 3819.54,1492.9 3826.53,1485.9C3847.51,1499.89 3875.48,1506.88 3903.45,1506.88L4064.28,1506.88C4071.28,1520.87 4085.26,1534.85 4099.24,1548.84C4134.21,1583.8 4183.16,1597.79 4225.11,1597.79C4260.07,1597.79 4288.05,1583.8 4309.02,1576.81L4316.02,1569.82C4330,1562.82 4385.94,1555.83 4476.85,1548.84ZM3365.02,604.835C3379.01,604.835 3392.99,611.828 3392.99,625.813C3406.98,639.798 3406.98,646.791 3406.98,660.776C3399.99,716.717 3399.99,814.614 3399.99,814.614C3399.99,828.599 3392.99,849.577 3379.01,856.569C3358.03,870.554 3337.05,863.562 3323.07,842.584C3323.07,835.591 3316.07,821.606 3316.07,779.65L3316.07,695.739C3274.12,695.739 3211.18,702.732 3141.26,702.732L3141.26,1255.15L3225.17,1255.15C3246.15,1255.15 3267.12,1276.12 3267.12,1297.1C3267.12,1318.08 3246.15,1339.06 3225.17,1339.06L2966.44,1346.05C2945.47,1346.05 2924.49,1325.07 2924.49,1304.1C2924.49,1283.12 2945.47,1262.14 2966.44,1262.14L3057.35,1262.14L3057.35,709.724L2875.54,709.724C2889.53,765.665 2903.51,877.547 2903.51,877.547C2903.51,898.525 2889.53,919.503 2868.55,919.503C2847.57,926.495 2819.6,905.517 2819.6,884.54L2784.64,674.761C2777.64,660.776 2784.64,646.791 2791.63,639.798C2805.61,632.806 2812.61,625.813 2826.59,625.813L3099.3,618.821C3239.16,611.828 3365.02,604.835 3365.02,604.835ZM4504.82,1360.04C4504.82,1381.01 4490.83,1401.99 4469.85,1415.98C4371.96,1422.97 4288.05,1429.96 4267.07,1443.95C4239.1,1450.94 4218.12,1457.93 4204.13,1443.95C4183.16,1429.96 4183.16,1401.99 4197.14,1388.01C4218.12,1360.04 4260.07,1360.04 4316.02,1346.05L4316.02,1024.39L4064.28,1066.35L4064.28,1283.12L4134.21,1283.12C4155.19,1283.12 4176.16,1304.1 4176.16,1325.07C4176.16,1346.05 4155.19,1367.03 4134.21,1367.03L3903.45,1360.04C3882.47,1360.04 3861.5,1339.06 3861.5,1318.08C3861.5,1297.1 3882.47,1276.12 3903.45,1276.12L3973.38,1276.12L3973.38,709.724L3903.45,709.724C3882.47,709.724 3861.5,688.747 3861.5,667.769C3861.5,646.791 3882.47,625.813 3903.45,625.813L4127.22,625.813C4148.19,625.813 4169.17,646.791 4169.17,667.769C4169.17,688.747 4148.19,709.724 4127.22,709.724L4057.29,709.724L4057.29,975.443L4309.02,933.488L4309.02,639.798L4239.1,639.798C4218.12,639.798 4197.14,618.821 4197.14,597.843C4197.14,576.865 4218.12,555.887 4239.1,555.887L4462.86,548.895C4483.84,548.895 4504.82,569.872 4504.82,590.85C4504.82,611.828 4483.84,632.806 4462.86,632.806L4399.93,632.806C4406.92,1108.3 4406.92,1255.15 4406.92,1325.07C4427.9,1318.08 4448.88,1318.08 4462.86,1318.08C4483.84,1318.08 4504.82,1339.06 4504.82,1360.04ZM868.662,954.466C952.573,968.451 1127.39,996.421 1127.39,1171.24C1127.39,1220.18 1099.42,1276.12 1057.46,1311.09C1008.51,1353.04 945.581,1374.02 882.647,1360.04C833.699,1353.04 791.743,1332.07 763.773,1311.09L763.773,1388.01C763.773,1408.99 742.795,1429.96 721.817,1429.96C700.84,1429.96 679.862,1408.99 679.862,1388.01C679.862,1381.01 672.869,1318.08 679.862,1234.17C686.854,1185.22 686.854,1101.31 686.854,1101.31C686.854,1080.33 707.832,1059.36 728.81,1059.36C749.788,1059.36 770.766,1080.33 770.766,1101.31L770.766,1115.3C770.766,1136.27 777.758,1171.24 784.751,1199.21C798.736,1227.18 840.692,1248.15 854.677,1255.15C868.662,1255.15 875.655,1262.14 889.64,1262.14C931.596,1269.13 973.551,1262.14 1001.52,1234.17C1029.49,1213.19 1043.48,1185.22 1043.48,1157.25C1043.48,1087.33 966.559,1066.35 854.677,1045.37C749.788,1024.39 707.832,940.48 721.817,807.621L721.817,793.636C728.81,723.71 742.795,604.835 875.655,625.813C924.603,625.813 966.559,660.776 1001.52,695.739L1001.52,618.821C1001.52,597.843 1022.5,576.865 1043.48,576.865C1064.45,576.865 1085.43,597.843 1085.43,618.821C1085.43,625.813 1071.45,891.532 1071.45,891.532C1064.45,912.51 1043.48,933.488 1022.5,926.495C1001.52,919.503 987.536,905.517 987.536,891.532L987.536,863.562C980.544,842.584 980.544,821.606 966.559,793.636C952.573,751.68 924.603,730.702 910.618,716.717C896.632,702.732 882.647,695.739 868.662,695.739C826.706,695.739 819.714,716.717 805.729,800.628L805.729,814.614C791.743,912.51 819.714,947.473 868.662,954.466ZM2861.55,1031.38C2882.53,1024.39 2903.51,1038.38 2910.5,1052.36C2917.49,1073.34 2903.51,1101.31 2882.53,1108.3C2805.61,1136.27 2728.7,1171.24 2707.72,1199.21C2693.73,1213.19 2665.76,1220.18 2644.78,1206.2C2630.8,1192.21 2623.81,1171.24 2637.79,1150.26C2658.77,1129.28 2672.75,1122.29 2707.72,1101.31L2665.76,996.421L2469.97,1031.38L2462.98,1094.32C2490.95,1094.32 2504.93,1115.3 2504.93,1136.27C2504.93,1164.24 2483.95,1178.23 2462.98,1178.23L2253.2,1171.24C2225.23,1171.24 2211.24,1150.26 2211.24,1129.28C2211.24,1101.31 2232.22,1087.33 2253.2,1087.33L2379.07,1094.32C2400.04,996.421 2462.98,681.754 2476.96,604.835C2421.02,611.828 2351.09,618.821 2351.09,618.821C2323.12,625.813 2302.15,604.835 2302.15,583.858C2295.15,555.887 2316.13,534.909 2337.11,534.909L2518.92,513.932C2532.9,513.932 2546.89,520.924 2553.88,527.917C2560.87,527.917 2567.87,541.902 2567.87,548.895L2728.7,933.488L2784.64,1066.35C2826.59,1045.37 2847.57,1038.38 2861.55,1031.38ZM2490.95,961.458L2630.8,940.48L2539.89,709.724L2490.95,961.458ZM1581.91,1122.29C1602.89,1122.29 1623.86,1143.27 1623.86,1157.25L1623.86,1227.18C1616.87,1241.16 1609.88,1290.11 1595.89,1318.08C1581.91,1339.06 1574.91,1353.04 1560.93,1367.03C1539.95,1388.01 1518.97,1401.99 1498,1408.99C1470.03,1422.97 1442.06,1422.97 1414.09,1422.97L1393.11,1422.97C1232.28,1422.97 1183.33,1297.1 1176.34,1234.17L1176.34,1038.38C1183.33,933.488 1218.29,870.554 1267.24,835.591C1337.17,800.628 1414.09,828.599 1442.06,842.584C1463.03,849.577 1484.01,863.562 1498,877.547L1498,800.628C1498,779.65 1518.97,758.673 1539.95,758.673C1560.93,758.673 1581.91,779.65 1581.91,800.628L1581.91,989.429C1581.91,1010.41 1574.91,1024.39 1553.94,1031.38C1532.96,1031.38 1511.98,1024.39 1504.99,1010.41C1504.99,1010.41 1463.03,947.473 1407.09,926.495C1358.14,912.51 1330.17,905.517 1309.2,919.503C1281.23,940.48 1267.24,989.429 1260.25,1059.36L1260.25,1241.16C1260.25,1262.14 1274.23,1346.05 1386.12,1346.05L1414.09,1346.05C1442.06,1346.05 1449.05,1346.05 1463.03,1339.06C1477.02,1332.07 1491,1325.07 1498,1318.08C1511.98,1304.1 1518.97,1297.1 1525.97,1283.12C1532.96,1269.13 1539.95,1241.16 1539.95,1227.18L1539.95,1164.24C1539.95,1143.27 1560.93,1122.29 1581.91,1122.29ZM2288.16,1213.19C2309.14,1220.18 2323.12,1241.16 2295.15,1255.15C2281.17,1318.08 2253.2,1339.06 2218.24,1360.04C2176.28,1381.01 2141.32,1367.03 2113.35,1360.04C2078.38,1346.05 2057.41,1311.09 2050.41,1297.1C2036.43,1262.14 2029.43,1178.23 2029.43,1157.25C2022.44,1052.36 2008.46,1010.41 1994.47,989.429C1987.48,975.443 1973.49,968.451 1959.51,968.451L1945.52,968.451C1910.56,982.436 1875.6,989.429 1833.64,996.421L1833.64,1241.16L1896.58,1234.17C1917.55,1227.18 1945.52,1248.15 1945.52,1269.13C1952.52,1290.11 1931.54,1318.08 1910.56,1318.08L1707.78,1346.05C1686.8,1353.04 1658.83,1332.07 1658.83,1311.09C1651.83,1290.11 1672.81,1262.14 1693.79,1262.14L1749.73,1255.15L1749.73,1010.41L1728.75,1010.41C1707.78,1010.41 1686.8,989.429 1686.8,968.451C1686.8,947.473 1707.78,926.495 1728.75,926.495L1749.73,926.495L1749.73,730.702C1728.75,730.702 1707.78,737.695 1686.8,737.695C1665.82,744.687 1637.85,723.71 1637.85,702.732C1630.86,681.754 1651.83,653.784 1672.81,653.784C1770.71,639.798 2071.39,604.835 2141.32,723.71C2169.29,772.658 2155.3,828.599 2106.35,898.525C2106.35,898.525 2085.38,919.503 2064.4,933.488C2099.36,968.451 2127.33,1038.38 2127.33,1164.24C2127.33,1199.21 2134.32,1255.15 2141.32,1269.13C2148.31,1276.12 2155.3,1290.11 2155.3,1290.11C2176.28,1297.1 2190.26,1304.1 2197.26,1297.1C2204.25,1290.11 2218.24,1290.11 2232.22,1241.16C2239.21,1220.18 2267.18,1206.2 2288.16,1213.19ZM2043.42,835.591C2064.4,807.621 2078.38,779.65 2078.38,765.665L2078.38,751.68C2057.41,716.717 1959.51,709.724 1847.63,709.724L1847.63,905.517C1889.58,898.525 1931.54,891.532 1959.51,877.547L1980.49,870.554C1987.48,870.554 2008.46,863.562 2015.45,856.569C2029.43,849.577 2036.43,842.584 2043.42,835.591ZM3812.55,1080.33C3833.53,1080.33 3854.5,1094.32 3854.5,1108.3L3854.5,1178.23C3847.51,1192.21 3840.52,1241.16 3826.53,1269.13C3812.55,1290.11 3805.56,1304.1 3791.57,1318.08C3770.59,1339.06 3749.62,1353.04 3728.64,1360.04C3700.67,1374.02 3672.7,1374.02 3644.73,1374.02L3623.75,1374.02C3469.91,1374.02 3420.96,1248.15 3413.97,1185.22L3413.97,989.429C3420.96,884.54 3455.93,821.606 3504.87,786.643C3567.81,744.687 3651.72,779.65 3672.7,793.636C3693.67,807.621 3714.65,814.614 3728.64,828.599L3728.64,751.68C3728.64,730.702 3749.62,709.724 3770.59,709.724C3791.57,709.724 3812.55,730.702 3812.55,751.68L3812.55,940.48C3812.55,961.458 3805.56,975.443 3784.58,982.436C3763.6,982.436 3742.62,975.443 3735.63,961.458C3728.64,961.458 3693.67,898.525 3637.73,877.547C3588.78,863.562 3560.82,856.569 3539.84,870.554C3511.87,891.532 3497.88,940.48 3490.89,1010.41L3490.89,1192.21C3490.89,1213.19 3504.87,1304.1 3616.76,1297.1L3644.73,1297.1C3672.7,1297.1 3679.69,1297.1 3693.67,1290.11C3707.66,1283.12 3721.64,1276.12 3728.64,1269.13C3742.62,1255.15 3749.62,1248.15 3756.61,1234.17C3763.6,1227.18 3770.59,1199.21 3770.59,1178.23L3770.59,1122.29C3770.59,1101.31 3791.57,1080.33 3812.55,1080.33Z" style="fill:#fff;"/></svg>