<?xml version="1.0" encoding="UTF-8" standalone="no"?><!DOCTYPE svg PUBLIC "-//W3C//DTD SVG 1.1//EN" "http://www.w3.org/Graphics/SVG/1.1/DTD/svg11.dtd"><svg width="1958px" height="1958px" version="1.1" xmlns="http://www.w3.org/2000/svg" xmlns:xlink="http://www.w3.org/1999/xlink" xml:space="preserve" xmlns:serif="http://www.serif.com/" style="fill-rule:evenodd;clip-rule:evenodd;stroke-linejoin:round;stroke-miterlimit:2;"><path d="M978.94,0C1519.23,0 1957.88,438.648 1957.88,978.94C1957.88,1519.23 1519.23,1957.88 978.94,1957.88C438.648,1957.88 0,1519.23 0,978.94C0,438.648 438.648,0 978.94,0ZM1091.05,360.094C1041.79,360.135 993.372,372.985 950.573,397.38L944.797,397.38C808.806,397.38 690.194,469.166 627.639,589.634C590.096,661.472 581.226,731.453 576.12,774.205C575.502,778.794 575.192,782.972 574.676,787.716C568.488,837.946 568.333,885.906 574.161,930.669C553.708,971.15 542.688,1015.74 541.929,1061.09L541.929,1061.92C541.504,1095.45 540.525,1128.98 538.99,1162.48C536.351,1212.98 536.213,1263.58 538.577,1314.1L539.248,1324.87C550.799,1477.93 677.714,1597.78 828.506,1597.78C893.397,1597.97 956.438,1575.94 1007.09,1535.38C1106.05,1531.48 1200.7,1493.58 1275,1428.12C1369.17,1346.28 1422.44,1229.83 1420.95,1108.9C1420.28,1038.66 1403.1,972.854 1370.51,914.837C1376.55,849.188 1381.91,657.191 1381.91,655.438C1381.91,495.415 1253.81,363.034 1096.26,360.094L1091.05,360.094ZM1093.94,498.045C1178.62,499.592 1247.52,570.862 1247.52,656.934C1247.52,658.893 1240.04,888.846 1236.43,908.752C1234.31,920.974 1230.8,932.913 1225.96,944.335C1264.95,990.233 1286.04,1047.48 1286.55,1112.25C1287.64,1192.44 1251.43,1270.88 1187.23,1326.78C1133.14,1374.57 1063.44,1401.05 991.262,1401.25C978.881,1401.17 966.516,1400.34 954.235,1398.77C951.43,1402.59 948.47,1406.29 945.365,1409.86C916.186,1443.93 873.465,1463.52 828.609,1463.39C747.489,1463.39 679.21,1398.67 673.228,1316.11L672.815,1309.82C670.674,1264.08 670.76,1218.26 673.073,1172.53C675.084,1137.52 676.167,1078.11 676.27,1065.27C676.812,1026.76 691.144,989.694 716.65,960.838C704.428,917.777 700.56,866.155 708.038,805.095L709.275,794.162C713.556,758.321 720.002,705.461 746.406,654.922C785.857,578.959 858.211,535.382 944.849,535.382C959.094,535.298 973.317,536.506 987.343,538.992C1015.5,513.207 1052.84,497.22 1093.94,498.045ZM948.304,943.459C908.079,937.116 886.523,909.732 897.249,825.105L898.436,814.894C907.46,741.354 914.99,725.006 949.8,726.915C960.011,727.585 971.769,734.134 983.527,743.933C994.408,756.671 1018.6,773.225 1032.26,806.024C1042.06,830.055 1045.36,845.733 1046.75,862.648L1048.92,883.379L1048.92,883.276C1051.77,900.07 1066.46,912.48 1083.49,912.48C1100.66,912.48 1115.43,899.871 1118.12,882.915C1118.54,880.646 1127.2,657.81 1127.2,654.149C1127.2,634.552 1111.63,618.565 1092.13,618.256C1072.81,618.34 1056.96,634.26 1056.96,653.581C1056.96,653.633 1056.96,653.684 1056.96,653.736C1056.96,654.2 1056.91,684.936 1056.24,715.93C1028.6,685.4 993.17,658.016 953.41,655.593C847.278,649.92 835.674,748.987 828.661,806.075L827.629,816.183C813.293,929.071 850.372,1000.24 937.474,1014.06C1032.26,1029.17 1095.43,1051.19 1096,1110.39C1096.36,1133.39 1084.45,1156.96 1063.67,1175.06C1038.93,1196.61 1005.9,1206.19 973.47,1201.21C964.013,1199.59 954.713,1197.15 945.674,1193.94C933.297,1186.92 901.994,1167.63 886.162,1145.36C872.753,1126.59 868.112,1097.04 866.668,1078.32C866.874,1069.91 866.926,1064.39 866.926,1063.72C867.3,1044.35 851.79,1028.05 832.425,1027.47C832.304,1027.47 832.184,1027.46 832.063,1027.46C812.706,1027.46 796.728,1043.28 796.532,1062.64C796.532,1063.31 795.656,1133.13 793.129,1175.22C789.519,1242.93 793.129,1300.33 793.129,1302.8C794.573,1322.5 811.178,1337.35 830.62,1336.01C848.995,1334.83 863.476,1319.38 863.476,1300.97C863.476,1300.05 863.44,1299.13 863.368,1298.21C863.368,1297.9 861.666,1270.11 861.872,1231.69C892.157,1251.58 926.155,1265.14 961.816,1271.55C1014.74,1280.39 1068.92,1264.83 1109.1,1229.26C1145.87,1197.34 1166.96,1153.76 1166.34,1109.62C1165.11,977.856 1018.6,954.701 948.304,943.459Z" style="fill:#fff;"/></svg>