<?xml version="1.0" encoding="UTF-8" standalone="no"?><!DOCTYPE svg PUBLIC "-//W3C//DTD SVG 1.1//EN" "http://www.w3.org/Graphics/SVG/1.1/DTD/svg11.dtd"><svg width="1056px" height="314px" version="1.1" xmlns="http://www.w3.org/2000/svg" xmlns:xlink="http://www.w3.org/1999/xlink" xml:space="preserve" xmlns:serif="http://www.serif.com/" style="fill-rule:evenodd;clip-rule:evenodd;stroke-linejoin:round;stroke-miterlimit:2;"><g><path d="M96.613,0C43.255,0 -0,44.277 -0,98.896C-0,153.515 43.255,197.793 96.613,197.793L96.613,0Z" style="fill:#fff;"/><path d="M193.226,313.143C193.226,258.524 149.971,214.246 96.613,214.246C43.255,214.246 -0,258.524 -0,313.143L193.226,313.143Z" style="fill:#fff;"/><path d="M209.3,313.143C262.658,313.143 305.913,268.865 305.913,214.246C305.913,159.627 262.658,115.35 209.3,115.35L209.3,313.143Z" style="fill:#fff;"/><path d="M112.687,0C112.687,54.619 155.942,98.896 209.3,98.896C262.658,98.896 305.913,54.619 305.913,0L112.687,0Z" style="fill:#fff;"/></g><g><g><path d="M460.861,36.239C453.035,28.864 442.973,25.177 430.676,25.177C424.216,25.177 418.751,26.512 414.279,29.182C409.807,31.852 407.571,35.349 407.571,39.672C407.571,45.267 409.838,49.113 414.372,51.212C418.906,53.31 425.955,54.804 435.52,55.694C468.935,58.873 485.643,73.177 485.643,98.608C485.643,112.468 480.332,122.959 469.712,130.079C459.091,137.2 446.079,140.76 430.676,140.76C419.123,141.014 408.068,138.821 397.509,134.18C386.951,129.539 379.063,122.768 373.846,113.867L391.174,95.557C395.646,101.66 401.64,106.301 409.155,109.48C416.67,112.659 423.906,114.248 430.862,114.248C438.812,114.248 445.147,112.818 449.868,109.957C454.588,107.096 456.948,103.186 456.948,98.227C456.948,92.759 454.836,88.69 450.613,86.02C446.389,83.35 439.744,81.633 430.676,80.87C422.974,80.235 416.328,79.186 410.739,77.723C405.149,76.261 399.776,74.068 394.621,71.143C389.466,68.218 385.553,64.15 382.882,58.936C380.212,53.723 378.939,47.365 379.063,39.863C379.063,31.344 381.547,24 386.516,17.833C391.485,11.666 397.789,7.152 405.428,4.291C413.068,1.43 421.421,0 430.489,0C441.172,0 450.364,1.462 458.066,4.387C465.768,7.311 472.786,12.525 479.121,20.027L460.861,36.239Z" style="fill:#fff;fill-rule:nonzero;"/><path d="M522.875,100.154C523.62,104.986 526.166,109.023 530.514,112.266C534.862,115.508 540.638,117.129 547.843,117.129C558.277,117.129 566.227,114.65 571.693,109.691L586.785,126.857C577.593,136.139 564.426,140.78 547.284,140.78C530.887,140.78 518.185,136.171 509.179,126.952C500.174,117.733 495.671,105.495 495.671,90.236C495.671,75.868 500.111,64.169 508.993,55.141C517.875,46.113 529.707,41.599 544.489,41.599C558.774,41.599 570.171,45.541 578.68,53.425C587.189,61.308 591.443,72.625 591.443,87.375C591.443,92.08 591.133,96.339 590.512,100.154L522.875,100.154ZM566.475,80.127C566.227,75.295 563.991,71.576 559.768,68.969C555.544,66.363 550.451,65.059 544.489,65.059C539.023,65.059 534.396,66.395 530.607,69.065C526.819,71.735 524.241,75.423 522.875,80.127L566.475,80.127Z" style="fill:#fff;fill-rule:nonzero;"/><path d="M676.836,43.697L702.922,43.697L702.922,140.78L676.836,140.78L677.209,126.094C674.476,131.053 670.377,134.74 664.911,137.156C659.446,139.572 654.104,140.78 648.887,140.78C634.85,140.78 623.422,136.266 614.603,127.238C605.783,118.21 601.373,106.067 601.373,90.808C601.373,75.804 605.814,63.851 614.696,54.951C623.577,46.05 634.788,41.599 648.328,41.599C662.116,41.599 671.619,45.923 676.836,54.569L676.836,43.697ZM652.427,65.822C645.471,65.822 639.695,68.079 635.099,72.593C630.503,77.107 628.204,83.179 628.204,90.808C628.204,98.438 630.503,104.477 635.099,108.928C639.695,113.378 645.471,115.603 652.427,115.603C659.632,115.603 665.501,113.187 670.035,108.356C674.569,103.524 676.836,97.992 676.836,91.762C676.836,84.641 674.662,78.538 670.315,73.452C665.967,68.365 660.005,65.822 652.427,65.822Z" style="fill:#fff;fill-rule:nonzero;"/><path d="M720.952,140.78L720.952,43.697L746.106,43.697L746.106,55.714C753.187,46.304 762.814,41.599 774.987,41.599C787.037,41.599 796.601,45.033 803.682,51.899C810.762,58.765 814.303,70.781 814.303,87.947L814.303,140.78L787.285,140.78L787.285,88.138C787.285,73.515 780.95,66.204 768.28,66.204C762.193,66.204 757.193,68.461 753.28,72.975C749.367,77.489 747.411,82.925 747.411,89.282L747.411,140.78L720.952,140.78Z" style="fill:#fff;"/></g><g><path d="M523.264,313.143L499.368,313.143L471.365,238.423L444.295,313.143L420.399,313.143L369.113,172.363L401.783,172.363L434.078,263.178L464.033,172.363L478.218,172.363L509.637,263.553L540.445,172.363L573.115,172.363L523.264,313.143Z" style="fill:#fff;fill-rule:nonzero;"/><path d="M634.793,215.874L660.929,215.874L660.929,313.143L634.793,313.143L635.166,298.428C632.428,303.397 628.321,307.091 622.845,309.512C617.369,311.932 612.017,313.143 606.79,313.143C592.726,313.143 581.276,308.62 572.44,299.575C563.603,290.529 559.185,278.363 559.185,263.075C559.185,248.042 563.634,236.066 572.533,227.148C581.432,218.231 592.664,213.772 606.23,213.772C620.045,213.772 629.566,218.103 634.793,226.766L634.793,215.874ZM610.337,238.041C603.367,238.041 597.58,240.302 592.975,244.825C588.37,249.348 586.068,255.431 586.068,263.075C586.068,270.719 588.37,276.77 592.975,281.229C597.58,285.688 603.367,287.918 610.337,287.918C617.556,287.918 623.436,285.497 627.979,280.656C632.522,275.815 634.793,270.273 634.793,264.03C634.793,256.896 632.615,250.781 628.259,245.685C623.903,240.589 617.929,238.041 610.337,238.041Z" style="fill:#fff;fill-rule:nonzero;"/><path d="M836.288,215.874L862.424,215.874L862.424,313.143L836.288,313.143L836.662,298.428C833.923,303.397 829.816,307.091 824.34,309.512C818.864,311.932 813.512,313.143 808.285,313.143C794.222,313.143 782.771,308.62 773.935,299.575C765.098,290.529 760.68,278.363 760.68,263.075C760.68,248.042 765.13,236.066 774.028,227.148C782.927,218.231 794.159,213.772 807.725,213.772C821.54,213.772 831.061,218.103 836.288,226.766L836.288,215.874ZM811.832,238.041C804.863,238.041 799.075,240.302 794.47,244.825C789.866,249.348 787.563,255.431 787.563,263.075C787.563,270.719 789.866,276.77 794.47,281.229C799.075,285.688 804.863,287.918 811.832,287.918C819.051,287.918 824.931,285.497 829.474,280.656C834.017,275.815 836.288,270.273 836.288,264.03C836.288,256.896 834.11,250.781 829.754,245.685C825.398,240.589 819.424,238.041 811.832,238.041Z" style="fill:#fff;fill-rule:nonzero;"/><rect x="676.558" y="172.363" width="26.696" height="140.78" style="fill:#fff;fill-rule:nonzero;"/><rect x="720.701" y="172.363" width="26.696" height="140.78" style="fill:#fff;fill-rule:nonzero;"/><path d="M959.155,298.046C949.821,308.11 937.811,313.143 923.125,313.143C908.688,313.143 896.677,308.907 887.094,300.435C877.511,291.963 872.719,279.637 872.719,263.457C872.719,248.169 877.573,236.035 887.281,227.053C896.989,218.071 908.874,213.581 922.938,213.581C937.126,213.581 948.265,218.039 956.355,226.957L941.42,244.347C936.566,240.653 930.779,238.805 924.058,238.805C917.088,238.805 911.301,241.003 906.696,245.398C902.091,249.794 899.789,255.813 899.789,263.457C899.789,270.719 902.091,276.484 906.696,280.752C911.301,285.019 916.902,287.153 923.498,287.153C926.734,287.153 930.125,286.516 933.672,285.242C937.22,283.968 940.051,282.249 942.167,280.083L959.155,298.046Z" style="fill:#fff;fill-rule:nonzero;"/><path d="M986.411,272.439C987.158,277.28 989.709,281.325 994.066,284.574C998.422,287.822 1004.21,289.447 1011.43,289.447C1021.88,289.447 1029.85,286.962 1035.32,281.994L1050.44,299.193C1041.24,308.493 1028.04,313.143 1010.87,313.143C994.439,313.143 981.713,308.525 972.69,299.288C963.667,290.052 959.155,277.79 959.155,262.502C959.155,248.106 963.605,236.385 972.503,227.34C981.402,218.294 993.257,213.772 1008.07,213.772C1022.38,213.772 1033.8,217.721 1042.32,225.62C1050.85,233.518 1055.11,244.857 1055.11,259.635C1055.11,264.349 1054.8,268.617 1054.18,272.439L986.411,272.439ZM1030.1,252.373C1029.85,247.532 1027.61,243.806 1023.38,241.194C1019.14,238.583 1014.04,237.277 1008.07,237.277C1002.59,237.277 997.955,238.614 994.159,241.29C990.363,243.965 987.78,247.66 986.411,252.373L1030.1,252.373Z" style="fill:#fff;fill-rule:nonzero;"/></g></g></svg>