<?xml version="1.0" encoding="UTF-8" standalone="no"?><!DOCTYPE svg PUBLIC "-//W3C//DTD SVG 1.1//EN" "http://www.w3.org/Graphics/SVG/1.1/DTD/svg11.dtd"><svg width="1092px" height="314px" version="1.1" xmlns="http://www.w3.org/2000/svg" xmlns:xlink="http://www.w3.org/1999/xlink" xml:space="preserve" xmlns:serif="http://www.serif.com/" style="fill-rule:evenodd;clip-rule:evenodd;stroke-linejoin:round;stroke-miterlimit:2;"><g><path d="M96.613,-0C43.255,0 0,44.277 0,98.896C0,153.515 43.255,197.793 96.613,197.793L96.613,-0Z" style="fill:#fff;"/><path d="M193.226,313.143C193.226,258.524 149.971,214.246 96.613,214.246C43.255,214.246 -0,258.524 -0,313.143L193.226,313.143Z" style="fill:#fff;"/><path d="M209.3,313.143C262.658,313.143 305.913,268.865 305.913,214.246C305.913,159.627 262.658,115.35 209.3,115.35L209.3,313.143Z" style="fill:#fff;"/><path d="M112.687,0C112.687,54.619 155.942,98.896 209.3,98.896C262.658,98.896 305.913,54.619 305.913,0L112.687,0Z" style="fill:#fff;"/></g><g transform="matrix(0.217975,0,0,0.223127,-249.812,-1462.62)"><g transform="matrix(860.032,0,0,860.032,2819.64,7173.49)"><path d="M0.491,-0.529C0.449,-0.568 0.395,-0.587 0.329,-0.587C0.294,-0.587 0.265,-0.58 0.241,-0.566C0.217,-0.552 0.205,-0.534 0.205,-0.511C0.205,-0.482 0.217,-0.462 0.242,-0.451C0.266,-0.44 0.304,-0.432 0.355,-0.427C0.534,-0.41 0.624,-0.335 0.624,-0.202C0.624,-0.129 0.596,-0.074 0.539,-0.037C0.482,0 0.412,0.019 0.329,0.019C0.267,0.02 0.208,0.009 0.151,-0.016C0.094,-0.04 0.052,-0.075 0.024,-0.122L0.117,-0.218C0.141,-0.186 0.173,-0.162 0.214,-0.145C0.254,-0.128 0.293,-0.12 0.33,-0.12C0.373,-0.12 0.407,-0.128 0.432,-0.142C0.457,-0.158 0.47,-0.178 0.47,-0.204C0.47,-0.233 0.459,-0.254 0.436,-0.268C0.413,-0.282 0.378,-0.291 0.329,-0.295C0.288,-0.298 0.252,-0.304 0.222,-0.312C0.192,-0.319 0.163,-0.331 0.136,-0.346C0.108,-0.361 0.087,-0.383 0.073,-0.41C0.058,-0.437 0.051,-0.471 0.052,-0.51C0.052,-0.555 0.065,-0.593 0.092,-0.625C0.119,-0.658 0.153,-0.682 0.194,-0.697C0.234,-0.712 0.279,-0.719 0.328,-0.719C0.385,-0.719 0.435,-0.711 0.476,-0.696C0.517,-0.681 0.555,-0.653 0.589,-0.614L0.491,-0.529Z" style="fill:#fff;fill-rule:nonzero;"/></g><g transform="matrix(860.032,0,0,860.032,3382.1,7173.49)"><path d="M0.179,-0.197C0.183,-0.172 0.197,-0.151 0.22,-0.134C0.243,-0.117 0.274,-0.108 0.313,-0.108C0.369,-0.108 0.412,-0.121 0.441,-0.147L0.522,-0.057C0.473,-0.008 0.402,0.016 0.31,0.016C0.222,0.016 0.154,-0.008 0.106,-0.057C0.057,-0.105 0.033,-0.169 0.033,-0.249C0.033,-0.324 0.057,-0.386 0.105,-0.433C0.152,-0.48 0.216,-0.504 0.295,-0.504C0.372,-0.504 0.433,-0.483 0.478,-0.442C0.524,-0.401 0.547,-0.341 0.547,-0.264C0.547,-0.239 0.545,-0.217 0.542,-0.197L0.179,-0.197ZM0.413,-0.302C0.412,-0.327 0.4,-0.347 0.377,-0.361C0.354,-0.374 0.327,-0.381 0.295,-0.381C0.266,-0.381 0.241,-0.374 0.221,-0.36C0.2,-0.346 0.186,-0.327 0.179,-0.302L0.413,-0.302Z" style="fill:#fff;fill-rule:nonzero;"/></g><g transform="matrix(860.032,0,0,860.032,3878.34,7173.49)"><path d="M0.443,-0.494L0.578,-0.494L0.578,-0L0.448,-0L0.44,-0.062C0.425,-0.036 0.403,-0.017 0.374,-0.004C0.345,0.009 0.316,0.015 0.288,0.015C0.213,0.015 0.151,-0.009 0.104,-0.056C0.057,-0.103 0.033,-0.167 0.033,-0.247C0.033,-0.326 0.057,-0.388 0.105,-0.435C0.152,-0.482 0.212,-0.505 0.285,-0.505C0.359,-0.505 0.41,-0.482 0.438,-0.437L0.443,-0.494ZM0.307,-0.378C0.27,-0.378 0.239,-0.366 0.214,-0.343C0.189,-0.319 0.177,-0.287 0.177,-0.247C0.177,-0.207 0.189,-0.175 0.214,-0.152C0.239,-0.129 0.27,-0.117 0.307,-0.117C0.346,-0.117 0.377,-0.13 0.402,-0.155C0.426,-0.18 0.438,-0.209 0.438,-0.242C0.438,-0.279 0.426,-0.311 0.403,-0.338C0.38,-0.365 0.348,-0.378 0.307,-0.378Z" style="fill:#fff;fill-rule:nonzero;"/></g><g transform="matrix(860.032,0,0,860.032,4427.9,7173.49)"><path d="M0.417,-0L0.417,-0.261C0.417,-0.338 0.383,-0.376 0.315,-0.376C0.282,-0.376 0.256,-0.364 0.234,-0.341C0.214,-0.317 0.203,-0.288 0.203,-0.255L0.203,-0L0.061,-0L0.061,-0.494L0.191,-0.494L0.196,-0.431C0.234,-0.48 0.286,-0.505 0.351,-0.505C0.416,-0.505 0.467,-0.487 0.505,-0.451C0.543,-0.415 0.562,-0.352 0.562,-0.262L0.562,-0L0.417,-0Z" style="fill:#fff;fill-rule:nonzero;"/></g><g transform="matrix(860.032,0,0,860.032,2819.64,7944.8)"><path d="M0.814,-0.001L0.686,-0.001L0.536,-0.392L0.391,-0.001L0.263,-0.001L0.002,-0.7L0.177,-0.7L0.264,-0.461L0.327,-0.235L0.484,-0.7L0.586,-0.7L0.75,-0.235L0.81,-0.46L0.893,-0.7L1.068,-0.7L0.814,-0.001Z" style="fill:#fff;fill-rule:nonzero;"/></g><g transform="matrix(860.032,0,0,860.032,3694.29,7944.8)"><path d="M0.443,-0.494L0.578,-0.494L0.578,-0L0.448,-0L0.44,-0.062C0.425,-0.036 0.403,-0.017 0.374,-0.004C0.345,0.009 0.316,0.015 0.288,0.015C0.213,0.015 0.151,-0.009 0.104,-0.056C0.057,-0.103 0.033,-0.167 0.033,-0.247C0.033,-0.326 0.057,-0.388 0.105,-0.435C0.152,-0.482 0.212,-0.505 0.285,-0.505C0.359,-0.505 0.41,-0.482 0.438,-0.437L0.443,-0.494ZM0.307,-0.378C0.27,-0.378 0.239,-0.366 0.214,-0.343C0.189,-0.319 0.177,-0.287 0.177,-0.247C0.177,-0.207 0.189,-0.175 0.214,-0.152C0.239,-0.129 0.27,-0.117 0.307,-0.117C0.346,-0.117 0.377,-0.13 0.402,-0.155C0.426,-0.18 0.438,-0.209 0.438,-0.242C0.438,-0.279 0.426,-0.311 0.403,-0.338C0.38,-0.365 0.348,-0.378 0.307,-0.378Z" style="fill:#fff;fill-rule:nonzero;"/></g><g transform="matrix(860.032,0,0,860.032,4243.85,7944.8)"><rect x="0.063" y="-0.699" width="0.143" height="0.699" style="fill:#fff;fill-rule:nonzero;"/></g><g transform="matrix(860.032,0,0,860.032,4475.2,7944.8)"><rect x="0.063" y="-0.699" width="0.143" height="0.699" style="fill:#fff;fill-rule:nonzero;"/></g><g transform="matrix(860.032,0,0,860.032,4706.55,7944.8)"><path d="M0.443,-0.494L0.578,-0.494L0.578,-0L0.448,-0L0.44,-0.062C0.425,-0.036 0.403,-0.017 0.374,-0.004C0.345,0.009 0.316,0.015 0.288,0.015C0.213,0.015 0.151,-0.009 0.104,-0.056C0.057,-0.103 0.033,-0.167 0.033,-0.247C0.033,-0.326 0.057,-0.388 0.105,-0.435C0.152,-0.482 0.212,-0.505 0.285,-0.505C0.359,-0.505 0.41,-0.482 0.438,-0.437L0.443,-0.494ZM0.307,-0.378C0.27,-0.378 0.239,-0.366 0.214,-0.343C0.189,-0.319 0.177,-0.287 0.177,-0.247C0.177,-0.207 0.189,-0.175 0.214,-0.152C0.239,-0.129 0.27,-0.117 0.307,-0.117C0.346,-0.117 0.377,-0.13 0.402,-0.155C0.426,-0.18 0.438,-0.209 0.438,-0.242C0.438,-0.279 0.426,-0.311 0.403,-0.338C0.38,-0.365 0.348,-0.378 0.307,-0.378Z" style="fill:#fff;fill-rule:nonzero;"/></g><g transform="matrix(860.032,0,0,860.032,5256.11,7944.8)"><path d="M0.495,-0.063C0.445,-0.01 0.381,0.016 0.302,0.016C0.225,0.016 0.16,-0.006 0.109,-0.051C0.058,-0.095 0.032,-0.159 0.032,-0.244C0.032,-0.324 0.058,-0.388 0.11,-0.435C0.162,-0.482 0.226,-0.505 0.301,-0.505C0.377,-0.505 0.437,-0.482 0.48,-0.435L0.4,-0.344C0.374,-0.363 0.343,-0.373 0.307,-0.373C0.27,-0.373 0.239,-0.362 0.214,-0.339C0.189,-0.316 0.177,-0.284 0.177,-0.244C0.177,-0.206 0.189,-0.176 0.214,-0.154C0.239,-0.131 0.269,-0.12 0.304,-0.12C0.321,-0.12 0.34,-0.123 0.359,-0.13C0.378,-0.137 0.393,-0.146 0.404,-0.157L0.495,-0.063Z" style="fill:#fff;fill-rule:nonzero;"/></g><g transform="matrix(860.032,0,0,860.032,5680.97,7944.8)"><path d="M0.179,-0.197C0.183,-0.172 0.197,-0.151 0.22,-0.134C0.243,-0.117 0.274,-0.108 0.313,-0.108C0.369,-0.108 0.412,-0.121 0.441,-0.147L0.522,-0.057C0.473,-0.008 0.402,0.016 0.31,0.016C0.222,0.016 0.154,-0.008 0.106,-0.057C0.057,-0.105 0.033,-0.169 0.033,-0.249C0.033,-0.324 0.057,-0.386 0.105,-0.433C0.152,-0.48 0.216,-0.504 0.295,-0.504C0.372,-0.504 0.433,-0.483 0.478,-0.442C0.524,-0.401 0.547,-0.341 0.547,-0.264C0.547,-0.239 0.545,-0.217 0.542,-0.197L0.179,-0.197ZM0.413,-0.302C0.412,-0.327 0.4,-0.347 0.377,-0.361C0.354,-0.374 0.327,-0.381 0.295,-0.381C0.266,-0.381 0.241,-0.374 0.221,-0.36C0.2,-0.346 0.186,-0.327 0.179,-0.302L0.413,-0.302Z" style="fill:#fff;fill-rule:nonzero;"/></g></g></svg>