<?xml version="1.0" encoding="UTF-8" standalone="no"?><!DOCTYPE svg PUBLIC "-//W3C//DTD SVG 1.1//EN" "http://www.w3.org/Graphics/SVG/1.1/DTD/svg11.dtd"><svg width="1958px" height="1958px" version="1.1" xmlns="http://www.w3.org/2000/svg" xmlns:xlink="http://www.w3.org/1999/xlink" xml:space="preserve" xmlns:serif="http://www.serif.com/" style="fill-rule:evenodd;clip-rule:evenodd;stroke-linejoin:round;stroke-miterlimit:2;"><path d="M978.94,0C1519.23,0 1957.88,438.648 1957.88,978.94C1957.88,1519.23 1519.23,1957.88 978.94,1957.88C438.648,1957.88 0,1519.23 0,978.94C0,438.648 438.648,0 978.94,0ZM1727.04,1046.33L1727.06,1046.34C1728.68,990.978 1707.7,937.276 1668.99,897.676C1630.28,858.062 1577.08,835.854 1521.7,836.195C1503.41,836.128 1485.21,838.607 1467.62,843.561C1447.68,750.833 1389.74,670.589 1308,622.492C1256.16,591.599 1196.91,575.318 1136.56,575.385C1037.79,575.385 1008.55,600.261 990.884,607.911C973.216,615.56 961.996,633.37 962.724,652.61L962.724,1201.59C962.853,1224.92 981.703,1243.86 1005.05,1244.11L1514.92,1244.11C1627.19,1245.66 1720.76,1158.44 1727.04,1046.33ZM899.092,687.319C899.793,681.021 896.816,674.852 891.45,671.483C886.072,668.138 879.232,668.138 873.854,671.483C868.467,674.836 865.472,681.012 866.175,687.319C852.205,871.91 841.42,1044.92 866.175,1228.94C867.105,1237.29 874.243,1243.68 882.645,1243.68C891.043,1243.68 898.175,1237.29 899.092,1228.94C925.644,1043.35 914.468,873.523 899.092,687.319ZM795.926,1229.12L795.917,1229.12C816.55,1070.49 816.623,909.855 796.133,751.203C795.184,742.429 787.698,735.697 778.872,735.68C770.042,735.686 762.549,742.423 761.608,751.203C743.157,909.975 743.157,1070.35 761.608,1229.12C762.882,1237.57 770.229,1243.88 778.776,1243.86C787.315,1243.87 794.649,1237.57 795.926,1229.12ZM589.01,1229.34L588.987,1229.34C609.635,1081.33 609.839,931.182 589.594,783.118C589.379,773.855 581.7,766.352 572.435,766.352C563.169,766.352 555.49,773.855 555.275,783.118C536.219,931.247 536.219,1081.21 555.275,1229.34C556.203,1237.89 563.51,1244.44 572.113,1244.44C580.725,1244.44 588.046,1237.9 589.01,1229.34ZM485.605,894.685L485.614,894.675L485.614,894.652C485.614,885.345 477.955,877.686 468.648,877.686C459.346,877.699 451.697,885.351 451.687,894.652C427.138,1009.6 438.714,1114.21 452.688,1230.52C453.929,1238.34 460.728,1244.15 468.639,1244.16C476.561,1244.16 483.378,1238.35 484.626,1230.52C499.975,1112.59 511.762,1010.4 485.605,894.685ZM382.439,877.112C381.504,868.23 373.921,861.412 364.99,861.423C356.062,861.437 348.485,868.237 347.51,877.112C325.769,994.446 332.951,1097.81 348.121,1214.96C349.729,1232.73 379.847,1232.54 381.828,1214.96C398.61,1096.02 406.399,995.654 382.439,877.112ZM692.544,735.037C691.631,726.579 684.397,720.099 675.89,720.12C667.381,720.093 660.143,726.576 659.236,735.037C643.456,903.457 635.483,1060.7 659.236,1228.73C659.249,1237.81 666.718,1245.28 675.798,1245.29C684.878,1245.28 692.347,1237.81 692.36,1228.73C716.908,1058.51 709.289,905.654 692.544,735.037ZM278.294,934.572L278.262,934.572C277.325,925.692 269.743,918.877 260.813,918.888C251.882,918.872 244.297,925.69 243.365,934.572C223.421,1013.41 229.565,1078.66 244.734,1157.68C245.671,1165.93 252.727,1172.24 261.029,1172.25C269.329,1172.25 276.383,1165.93 277.292,1157.68C294.833,1077.09 303.417,1013.2 278.294,934.572Z" style="fill:#fff;"/></svg>