<?xml version="1.0" encoding="UTF-8" standalone="no"?><!DOCTYPE svg PUBLIC "-//W3C//DTD SVG 1.1//EN" "http://www.w3.org/Graphics/SVG/1.1/DTD/svg11.dtd"><svg width="1958px" height="1958px" version="1.1" xmlns="http://www.w3.org/2000/svg" xmlns:xlink="http://www.w3.org/1999/xlink" xml:space="preserve" xmlns:serif="http://www.serif.com/" style="fill-rule:evenodd;clip-rule:evenodd;stroke-linejoin:round;stroke-miterlimit:2;"><path d="M978.94,0C1519.23,0 1957.88,438.648 1957.88,978.94C1957.88,1519.23 1519.23,1957.88 978.94,1957.88C438.648,1957.88 0,1519.23 0,978.94C0,438.648 438.648,0 978.94,0ZM280.531,629.737L280.531,1328.14L1677.35,1328.14L1677.35,629.737L280.531,629.737ZM367.825,804.34L466.171,804.34L520.575,1039.09L523.717,1039.09L580.316,804.34L676.881,804.34L734.427,1037.73L737.354,1037.73L790.819,804.34L888.951,804.34L793.746,1153.81L690.802,1153.81L630.536,933.966L626.248,933.966L565.982,1153.81L463.244,1153.81L367.825,804.34Z" style="fill:#fff;"/></svg>